{"title":"The.Mechanic.2011.TS.XViD-T0XiC-iNK","uid":6140046,"size":780068586,"categoryP":"video","categoryS":"movies","magnet":"?xt=urn:btih:344df00de40bb0f09157b74ae71fa92aafdc76dc&amp;dn=The.Mechanic.2011.TS.XViD-T0XiC-iNK&amp;tr=udp%3A%2F%2Ftracker.openbittorrent.com%3A80&amp;tr=udp%3A%2F%2Fopen.demonii.com%3A1337&amp;tr=udp%3A%2F%2Ftracker.coppersurfer.tk%3A6969&amp;tr=udp%3A%2F%2Fexodus.desync.com%3A6969","seeders":2,"leechers":3,"uploader":"SAFCukO09","files":4,"time":1296469241,"description":"::::::::::::::Enjoy:Another:Release:From:T0XiC::::::::::::::\n\nFile:: The.Mechanic.2011.TS.XViD-T0XiC-iNK\nVideo Source:: ....Elektri4ka\nAudio Source:: ....Own LiNE\nLanguage::English\nIMDB::http://www.imdb.com/title/tt0472399/\n\nFollows an elite hit man as he teaches his trade to an apprentice who\nhas a connection to one of his previous victims.\n\nSpecs::\n\nGeneral\n\nFormat : AVI\nFormat/Info : Audio Video Interleave\nFile size : 736 MiB\nDuration : 1h 25mn\nOverall bit rate : 1 209 Kbps\nWriting application : VirtualDubMod 1.5.10.2 (build 2540/release)\nWriting library : VirtualDubMod build 2540/release\n\nVideo\nID : 0\nFormat : MPEG-4 Visual\nFormat profile : Advanced Simple@L5\nFormat settings, BVOP : Yes\nFormat settings, QPel : No\nFormat settings, GMC : No warppoints\nFormat settings, Matrix : Default (MPEG)\nMuxing mode : Packed bitstream\nCodec ID : XVID\nCodec ID/Hint : XviD\nDuration : 1h 25mn\nBit rate : 1 039 Kbps\nWidth : 704 pixels\nHeight : 264 pixels\nDisplay aspect ratio : 2.667\nFrame rate : 25.000 fps\nColor space : YUV\nChroma subsampling : 4:2:0\nBit depth : 8 bits\nScan type : Progressive\nBits/(Pixel*Frame) : 0.224\nStream size : 633 MiB (86%)\nWriting library : XviD 1.2.1 (UTC 2008-12-04)\n\nAudio\nID : 1\nFormat : MPEG Audio\nFormat version : Version 1\nFormat profile : Layer 3\nCodec ID : 55\nCodec ID/Hint : MP3\nDuration : 1h 25mn\nBit rate mode : Constant\nBit rate : 160 Kbps\nChannel(s) : 2 channels\nSampling rate : 48.0 KHz\nStream size : 97.4 MiB (13%)\nAlignment : Aligned on interleaves\nInterleave, duration : 40 ms (1.00 video frame)\nInterleave, preload duration : 504 ms\n\nNOTES:: T0XiC-iNK is proud to present, The Mechanic, the first telesync with our usual great LiNE. Enjoy\nNote: A bit of a crop job, but we can only bring you what a source provides..\n\n::Why Complain? Whats Free Is Free::\n\n::iNK is currently a free agent looking for work, if you would like iNK\\'s touch, give me a email at:\n...&lt;a class=&quot;__cf_email__&quot; href=&quot;/cdn-cgi/l/email-protection&quot; data-cfemail=&quot;a0c4c9c7c9d4c1cc8ec9cecbe0ccc9d6c58ec3cfcd&quot;&gt;[email&amp;#160;protected]&lt;/a&gt;&lt;script cf-hash='f9e31' type=&quot;text/javascript&quot;&gt;\n/* &lt;![CDATA[ */!function(){try{var t=&quot;currentScript&quot;in document?document.currentScript:function(){for(var t=document.getElementsByTagName(&quot;script&quot;),e=t.length;e--;)if(t[e].getAttribute(&quot;cf-hash&quot;))return t[e]}();if(t&amp;&amp;t.previousSibling){var e,r,n,i,c=t.previousSibling,a=c.getAttribute(&quot;data-cfemail&quot;);if(a){for(e=&quot;&quot;,r=parseInt(a.substr(0,2),16),n=2;a.length-n;n+=2)i=parseInt(a.substr(n,2),16)^r,e+=String.fromCharCode(i);e=document.createTextNode(e),c.parentNode.replaceChild(e,c)}}}catch(u){}}();/* ]]&gt; */&lt;/script&gt;\n\n::We are always looking for friends with unreleased DVD\\'s, Screeners, R5\\'s, Audio, Cams, Silvers,\n...and any other good sources you may have to offer - contact us: &lt;a class=&quot;__cf_email__&quot; href=&quot;/cdn-cgi/l/email-protection&quot; data-cfemail=&quot;f682c68e9f9584939a9397859385b69e83859e9b979f9ad895999b&quot;&gt;[email&amp;#160;protected]&lt;/a&gt;&lt;script cf-hash='f9e31' type=&quot;text/javascript&quot;&gt;\n/* &lt;![CDATA[ */!function(){try{var t=&quot;currentScript&quot;in document?document.currentScript:function(){for(var t=document.getElementsByTagName(&quot;script&quot;),e=t.length;e--;)if(t[e].getAttribute(&quot;cf-hash&quot;))return t[e]}();if(t&amp;&amp;t.previousSibling){var e,r,n,i,c=t.previousSibling,a=c.getAttribute(&quot;data-cfemail&quot;);if(a){for(e=&quot;&quot;,r=parseInt(a.substr(0,2),16),n=2;a.length-n;n+=2)i=parseInt(a.substr(n,2),16)^r,e+=String.fromCharCode(i);e=document.createTextNode(e),c.parentNode.replaceChild(e,c)}}}catch(u){}}();/* ]]&gt; */&lt;/script&gt;\n\n:::::::::::::::::::::::::::::::::::: Respect To :::::::::::::::::::::::::::::::::::::\n::IMAGiNE,FLAWL3SS,Hive-CM8,DiGiTALiNK,Tranz,Vik,OneTwo,Joey,bob,Unevano &amp; our friends on utn and PA::\n\\&quot;and to all of you who support us, Thank-You\\&quot;\n\n\n\n","torrent":{"xt":"urn:btih:344df00de40bb0f09157b74ae71fa92aafdc76dc","amp;dn":"The.Mechanic.2011.TS.XViD-T0XiC-iNK","amp;tr":["udp%3A%2F%2Ftracker.openbittorrent.com%3A80","udp%3A%2F%2Fopen.demonii.com%3A1337","udp%3A%2F%2Ftracker.coppersurfer.tk%3A6969","udp%3A%2F%2Fexodus.desync.com%3A6969"],"infoHash":"344df00de40bb0f09157b74ae71fa92aafdc76dc","infoHashBuffer":{"type":"Buffer","data":[52,77,240,13,228,11,176,240,145,87,183,74,231,31,169,42,175,220,118,220]},"announce":[],"urlList":[]}}